<svg width="74" height="35" viewBox="0 0 74 35" fill="none" xmlns="http://www.w3.org/2000/svg">
<path d="M5.61932 0.818181V27H0.173296V0.818181H5.61932ZM18.854 27.3835C16.8683 27.3835 15.1509 26.9616 13.7021 26.1179C12.2617 25.2656 11.1495 24.081 10.3654 22.5639C9.58132 21.0384 9.18928 19.2699 9.18928 17.2585C9.18928 15.2301 9.58132 13.4574 10.3654 11.9403C11.1495 10.4148 12.2617 9.23011 13.7021 8.38636C15.1509 7.53409 16.8683 7.10795 18.854 7.10795C20.8398 7.10795 22.5529 7.53409 23.9933 8.38636C25.4421 9.23011 26.5586 10.4148 27.3427 11.9403C28.1268 13.4574 28.5188 15.2301 28.5188 17.2585C28.5188 19.2699 28.1268 21.0384 27.3427 22.5639C26.5586 24.081 25.4421 25.2656 23.9933 26.1179C22.5529 26.9616 20.8398 27.3835 18.854 27.3835ZM18.8796 23.1648C19.783 23.1648 20.5373 22.9091 21.1424 22.3977C21.7475 21.8778 22.2035 21.1705 22.5103 20.2756C22.8256 19.3807 22.9833 18.3622 22.9833 17.2202C22.9833 16.0781 22.8256 15.0597 22.5103 14.1648C22.2035 13.2699 21.7475 12.5625 21.1424 12.0426C20.5373 11.5227 19.783 11.2628 18.8796 11.2628C17.9677 11.2628 17.2006 11.5227 16.5785 12.0426C15.9648 12.5625 15.5004 13.2699 15.185 14.1648C14.8782 15.0597 14.7248 16.0781 14.7248 17.2202C14.7248 18.3622 14.8782 19.3807 15.185 20.2756C15.5004 21.1705 15.9648 21.8778 16.5785 22.3977C17.2006 22.9091 17.9677 23.1648 18.8796 23.1648ZM40.9066 34.7727C39.1424 34.7727 37.6296 34.5298 36.3683 34.044C35.1154 33.5668 34.1183 32.9148 33.3768 32.0881C32.6353 31.2614 32.1538 30.3324 31.9322 29.3011L36.9691 28.6236C37.1225 29.0156 37.3654 29.3821 37.6978 29.723C38.0302 30.0639 38.4691 30.3366 39.0146 30.5412C39.5685 30.7543 40.2418 30.8608 41.0344 30.8608C42.2191 30.8608 43.195 30.571 43.962 29.9915C44.7376 29.4205 45.1254 28.4616 45.1254 27.1151V23.5227H44.8952C44.6566 24.0682 44.2987 24.5838 43.8214 25.0696C43.3441 25.5554 42.7305 25.9517 41.9805 26.2585C41.2305 26.5653 40.3356 26.7188 39.2958 26.7188C37.8214 26.7188 36.479 26.3778 35.2688 25.696C34.0671 25.0057 33.1083 23.9531 32.3924 22.5384C31.685 21.1151 31.3313 19.3168 31.3313 17.1435C31.3313 14.919 31.6935 13.0611 32.418 11.5696C33.1424 10.0781 34.1055 8.96165 35.3072 8.22017C36.5174 7.47869 37.8427 7.10795 39.283 7.10795C40.3825 7.10795 41.3029 7.29545 42.0444 7.67045C42.7859 8.03693 43.3825 8.49716 43.8342 9.05114C44.2944 9.59659 44.6481 10.1335 44.8952 10.6619H45.0998V7.36364H50.5075V27.1918C50.5075 28.8622 50.0984 30.2599 49.2802 31.3849C48.462 32.5099 47.3285 33.3537 45.8796 33.9162C44.4393 34.4872 42.7816 34.7727 40.9066 34.7727ZM41.0217 22.6278C41.8995 22.6278 42.641 22.4105 43.2461 21.9759C43.8597 21.5327 44.3285 20.902 44.6523 20.0838C44.9847 19.2571 45.1509 18.2685 45.1509 17.1179C45.1509 15.9673 44.989 14.9702 44.6651 14.1264C44.3413 13.2741 43.8725 12.6136 43.2589 12.1449C42.6452 11.6761 41.8995 11.4418 41.0217 11.4418C40.1268 11.4418 39.3725 11.6847 38.7589 12.1705C38.1452 12.6477 37.6808 13.3125 37.3654 14.1648C37.0501 15.017 36.8924 16.0014 36.8924 17.1179C36.8924 18.2514 37.0501 19.2315 37.3654 20.0582C37.6893 20.8764 38.1538 21.5114 38.7589 21.9631C39.3725 22.4062 40.1268 22.6278 41.0217 22.6278ZM63.7134 27.3835C61.7276 27.3835 60.0103 26.9616 58.5614 26.1179C57.1211 25.2656 56.0089 24.081 55.2248 22.5639C54.4407 21.0384 54.0487 19.2699 54.0487 17.2585C54.0487 15.2301 54.4407 13.4574 55.2248 11.9403C56.0089 10.4148 57.1211 9.23011 58.5614 8.38636C60.0103 7.53409 61.7276 7.10795 63.7134 7.10795C65.6992 7.10795 67.4123 7.53409 68.8526 8.38636C70.3015 9.23011 71.418 10.4148 72.2021 11.9403C72.9862 13.4574 73.3782 15.2301 73.3782 17.2585C73.3782 19.2699 72.9862 21.0384 72.2021 22.5639C71.418 24.081 70.3015 25.2656 68.8526 26.1179C67.4123 26.9616 65.6992 27.3835 63.7134 27.3835ZM63.739 23.1648C64.6424 23.1648 65.3967 22.9091 66.0018 22.3977C66.6069 21.8778 67.0629 21.1705 67.3697 20.2756C67.685 19.3807 67.8427 18.3622 67.8427 17.2202C67.8427 16.0781 67.685 15.0597 67.3697 14.1648C67.0629 13.2699 66.6069 12.5625 66.0018 12.0426C65.3967 11.5227 64.6424 11.2628 63.739 11.2628C62.8271 11.2628 62.06 11.5227 61.4379 12.0426C60.8242 12.5625 60.3597 13.2699 60.0444 14.1648C59.7376 15.0597 59.5842 16.0781 59.5842 17.2202C59.5842 18.3622 59.7376 19.3807 60.0444 20.2756C60.3597 21.1705 60.8242 21.8778 61.4379 22.3977C62.06 22.9091 62.8271 23.1648 63.739 23.1648Z" fill="black"/>
</svg>
